  0
SECTION
  2
HEADER
  9
$ACADVER
  1
AC1014
  9
$HANDSEED
  5
FFFF
  9
$MEASUREMENT
 70
     1
  0
ENDSEC
  0
SECTION
  2
TABLES
  0
TABLE
  2
VPORT
  5
8
330
0
100
AcDbSymbolTable
 70
     4
  0
VPORT
  5
2E
330
8
100
AcDbSymbolTableRecord
100
AcDbViewportTableRecord
  2
*ACTIVE
 70
     0
 10
0.0
 20
0.0
 11
1.0
 21
1.0
 12
210.0
 22
148.5
 13
0.0
 23
0.0
 14
10.0
 24
10.0
 15
10.0
 25
10.0
 16
0.0
 26
0.0
 36
1.0
 17
0.0
 27
0.0
 37
0.0
 40
341.0
 41
1.24
 42
50.0
 43
0.0
 44
0.0
 50
0.0
 51
0.0
 71
     0
 72
   100
 73
     1
 74
     3
 75
     0
 76
     0
 77
     0
 78
     0
  0
ENDTAB
  0
TABLE
  2
LTYPE
  5
5
330
0
100
AcDbSymbolTable
 70
     1
  0
LTYPE
  5
14
330
5
100
AcDbSymbolTableRecord
100
AcDbLinetypeTableRecord
  2
BYBLOCK
 70
     0
  3

 72
    65
 73
     0
 40
0.0
  0
LTYPE
  5
15
330
5
100
AcDbSymbolTableRecord
100
AcDbLinetypeTableRecord
  2
BYLAYER
 70
     0
  3

 72
    65
 73
     0
 40
0.0
  0
LTYPE
  5
16
330
5
100
AcDbSymbolTableRecord
100
AcDbLinetypeTableRecord
  2
CONTINUOUS
 70
     0
  3
Solid line
 72
    65
 73
     0
 40
0.0
  0
ENDTAB
  0
TABLE
  2
LAYER
  5
2
100
AcDbSymbolTable
 70
2
  0
LAYER
  5
50
100
AcDbSymbolTableRecord
100
AcDbLayerTableRecord
  2
0
 70
0
  6
CONTINUOUS
  0
LAYER
  5
51
100
AcDbSymbolTableRecord
100
AcDbLayerTableRecord
  2
Ebene_1
 70
0
  6
CONTINUOUS
  0
ENDTAB
  0
TABLE
  2
STYLE
  5
3
330
0
100
AcDbSymbolTable
 70
     1
  0
STYLE
  5
11
330
3
100
AcDbSymbolTableRecord
100
AcDbTextStyleTableRecord
  2
STANDARD
 70
     0
 40
0.0
 41
1.0
 50
0.0
 71
     0
 42
2.5
  3
txt
  4

  0
ENDTAB
  0
TABLE
  2
VIEW
  5
6
330
0
100
AcDbSymbolTable
 70
     0
  0
ENDTAB
  0
TABLE
  2
UCS
  5
7
330
0
100
AcDbSymbolTable
 70
     0
  0
ENDTAB
  0
TABLE
  2
APPID
  5
9
330
0
100
AcDbSymbolTable
 70
     2
  0
APPID
  5
12
330
9
100
AcDbSymbolTableRecord
100
AcDbRegAppTableRecord
  2
ACAD
 70
     0
  0
ENDTAB
  0
TABLE
  2
DIMSTYLE
  5
A
330
0
100
AcDbSymbolTable
 70
     1
  0
DIMSTYLE
105
27
330
A
100
AcDbSymbolTableRecord
100
AcDbDimStyleTableRecord
  2
ISO-25
 70
     0
  3

  4

  5

  6

  7

 40
1.0
 41
2.5
 42
0.625
 43
3.75
 44
1.25
 45
0.0
 46
0.0
 47
0.0
 48
0.0
140
2.5
141
2.5
142
0.0
143
0.03937007874016
144
1.0
145
0.0
146
1.0
147
0.625
 71
     0
 72
     0
 73
     0
 74
     0
 75
     0
 76
     0
 77
     1
 78
     8
170
     0
171
     3
172
     1
173
     0
174
     0
175
     0
176
     0
177
     0
178
     0
270
     2
271
     2
272
     2
273
     2
274
     3
340
11
275
     0
280
     0
281
     0
282
     0
283
     0
284
     8
285
     0
286
     0
287
     3
288
     0
  0
ENDTAB
  0
TABLE
  2
BLOCK_RECORD
  5
1
330
0
100
AcDbSymbolTable
 70
     1
  0
BLOCK_RECORD
  5
1F
330
1
100
AcDbSymbolTableRecord
100
AcDbBlockTableRecord
  2
*MODEL_SPACE
  0
BLOCK_RECORD
  5
1B
330
1
100
AcDbSymbolTableRecord
100
AcDbBlockTableRecord
  2
*PAPER_SPACE
  0
ENDTAB
  0
ENDSEC
  0
SECTION
  2
BLOCKS
  0
BLOCK
  5
20
330
1F
100
AcDbEntity
  8
0
100
AcDbBlockBegin
  2
*MODEL_SPACE
 70
     0
 10
0.0
 20
0.0
 30
0.0
  3
*MODEL_SPACE
  1

  0
ENDBLK
  5
21
330
1F
100
AcDbEntity
  8
0
100
AcDbBlockEnd
  0
BLOCK
  5
1C
330
1B
100
AcDbEntity
 67
     1
  8
0
100
AcDbBlockBegin
  2
*PAPER_SPACE
  1

  0
ENDBLK
  5
1D
330
1B
100
AcDbEntity
 67
     1
  8
0
100
AcDbBlockEnd
  0
ENDSEC
  0
SECTION
  2
ENTITIES
  0
SPLINE
  5
100
100
AcDbEntity
  8
Ebene_1
 62
7
100
AcDbSpline
 70
8
 71
3
 72
8
 73
4
 74
0
 40
0
 40
0
 40
0
 40
0
 40
1
 40
1
 40
1
 40
1
 10
91.724966
 20
13.809320
 30
0.0
 10
90.675438
 20
13.801396
 30
0.0
 10
89.666211
 20
14.212956
 30
0.0
 10
88.921522
 20
14.952558
 30
0.0
  0
SPLINE
  5
101
100
AcDbEntity
  8
Ebene_1
 62
7
100
AcDbSpline
 70
8
 71
3
 72
8
 73
4
 74
0
 40
0
 40
0
 40
0
 40
0
 40
1
 40
1
 40
1
 40
1
 10
88.921522
 20
14.952558
 30
0.0
 10
88.176834
 20
15.692159
 30
0.0
 10
87.758366
 20
16.698543
 30
0.0
 10
87.759097
 20
17.748100
 30
0.0
  0
LWPOLYLINE
  5
102
100
AcDbEntity
  8
Ebene_1
 62
7
100
AcDbPolyline
 90
2
 70
0
 10
109.413030
 20
13.942870
 30
0.0
 10
91.724966
 20
13.809320
 30
0.0
  0
SPLINE
  5
103
100
AcDbEntity
  8
Ebene_1
 62
7
100
AcDbSpline
 70
8
 71
3
 72
8
 73
4
 74
0
 40
0
 40
0
 40
0
 40
0
 40
1
 40
1
 40
1
 40
1
 10
87.774557
 20
39.923290
 30
0.0
 10
87.776088
 20
42.119032
 30
0.0
 10
86.004358
 20
43.903972
 30
0.0
 10
83.808665
 20
43.918750
 30
0.0
  0
LWPOLYLINE
  5
104
100
AcDbEntity
  8
Ebene_1
 62
7
100
AcDbPolyline
 90
2
 70
0
 10
87.759097
 20
17.748100
 30
0.0
 10
87.774557
 20
39.923290
 30
0.0
  0
SPLINE
  5
105
100
AcDbEntity
  8
Ebene_1
 62
7
100
AcDbSpline
 70
8
 71
3
 72
8
 73
4
 74
0
 40
0
 40
0
 40
0
 40
0
 40
1
 40
1
 40
1
 40
1
 10
48.169399
 20
44.158620
 30
0.0
 10
47.564926
 20
44.162690
 30
0.0
 10
47.027788
 20
44.545038
 30
0.0
 10
46.826031
 20
45.114861
 30
0.0
  0
SPLINE
  5
106
100
AcDbEntity
  8
Ebene_1
 62
7
100
AcDbSpline
 70
8
 71
3
 72
8
 73
4
 74
0
 40
0
 40
0
 40
0
 40
0
 40
1
 40
1
 40
1
 40
1
 10
46.826031
 20
45.114861
 30
0.0
 10
46.624275
 20
45.684684
 30
0.0
 10
46.801146
 20
46.319841
 30
0.0
 10
47.268382
 20
46.703370
 30
0.0
  0
LWPOLYLINE
  5
107
100
AcDbEntity
  8
Ebene_1
 62
7
100
AcDbPolyline
 90
2
 70
0
 10
83.808665
 20
43.918750
 30
0.0
 10
48.169399
 20
44.158620
 30
0.0
  0
SPLINE
  5
108
100
AcDbEntity
  8
Ebene_1
 62
7
100
AcDbSpline
 70
8
 71
3
 72
8
 73
4
 74
0
 40
0
 40
0
 40
0
 40
0
 40
1
 40
1
 40
1
 40
1
 10
80.546338
 20
74.019240
 30
0.0
 10
81.003603
 20
74.394588
 30
0.0
 10
81.173988
 20
75.017771
 30
0.0
 10
80.971305
 20
75.573556
 30
0.0
  0
SPLINE
  5
109
100
AcDbEntity
  8
Ebene_1
 62
7
100
AcDbSpline
 70
8
 71
3
 72
8
 73
4
 74
0
 40
0
 40
0
 40
0
 40
0
 40
1
 40
1
 40
1
 40
1
 10
80.971305
 20
75.573556
 30
0.0
 10
80.768622
 20
76.129341
 30
0.0
 10
80.237066
 20
76.496541
 30
0.0
 10
79.645520
 20
76.489410
 30
0.0
  0
LWPOLYLINE
  5
10a
100
AcDbEntity
  8
Ebene_1
 62
7
100
AcDbPolyline
 90
2
 70
0
 10
47.268382
 20
46.703370
 30
0.0
 10
80.546338
 20
74.019240
 30
0.0
  0
SPLINE
  5
10b
100
AcDbEntity
  8
Ebene_1
 62
7
100
AcDbSpline
 70
8
 71
3
 72
8
 73
4
 74
0
 40
0
 40
0
 40
0
 40
0
 40
1
 40
1
 40
1
 40
1
 10
58.400921
 20
76.233180
 30
0.0
 10
57.775436
 20
76.225639
 30
0.0
 10
57.210432
 20
76.605604
 30
0.0
 10
56.981504
 20
77.187739
 30
0.0
  0
SPLINE
  5
10c
100
AcDbEntity
  8
Ebene_1
 62
7
100
AcDbSpline
 70
8
 71
3
 72
8
 73
4
 74
0
 40
0
 40
0
 40
0
 40
0
 40
1
 40
1
 40
1
 40
1
 10
56.981504
 20
77.187739
 30
0.0
 10
56.752575
 20
77.769873
 30
0.0
 10
56.907407
 20
78.432919
 30
0.0
 10
57.370477
 20
78.853460
 30
0.0
  0
LWPOLYLINE
  5
10d
100
AcDbEntity
  8
Ebene_1
 62
7
100
AcDbPolyline
 90
2
 70
0
 10
79.645520
 20
76.489410
 30
0.0
 10
58.400921
 20
76.233180
 30
0.0
  0
SPLINE
  5
10e
100
AcDbEntity
  8
Ebene_1
 62
7
100
AcDbSpline
 70
8
 71
3
 72
8
 73
4
 74
0
 40
0
 40
0
 40
0
 40
0
 40
1
 40
1
 40
1
 40
1
 10
92.807781
 20
111.035760
 30
0.0
 10
93.276792
 20
111.461693
 30
0.0
 10
93.435511
 20
112.132240
 30
0.0
 10
93.207207
 20
112.723228
 30
0.0
  0
SPLINE
  5
10f
100
AcDbEntity
  8
Ebene_1
 62
7
100
AcDbSpline
 70
8
 71
3
 72
8
 73
4
 74
0
 40
0
 40
0
 40
0
 40
0
 40
1
 40
1
 40
1
 40
1
 10
93.207207
 20
112.723228
 30
0.0
 10
92.978902
 20
113.314217
 30
0.0
 10
92.410602
 20
113.703909
 30
0.0
 10
91.777048
 20
113.703910
 30
0.0
  0
LWPOLYLINE
  5
110
100
AcDbEntity
  8
Ebene_1
 62
7
100
AcDbPolyline
 90
2
 70
0
 10
57.370477
 20
78.853460
 30
0.0
 10
92.807781
 20
111.035760
 30
0.0
  0
SPLINE
  5
111
100
AcDbEntity
  8
Ebene_1
 62
7
100
AcDbSpline
 70
8
 71
3
 72
8
 73
4
 74
0
 40
0
 40
0
 40
0
 40
0
 40
1
 40
1
 40
1
 40
1
 10
77.502394
 20
113.703910
 30
0.0
 10
76.867771
 20
113.703911
 30
0.0
 10
76.298414
 20
114.093989
 30
0.0
 10
76.069246
 20
114.685790
 30
0.0
  0
SPLINE
  5
112
100
AcDbEntity
  8
Ebene_1
 62
7
100
AcDbSpline
 70
8
 71
3
 72
8
 73
4
 74
0
 40
0
 40
0
 40
0
 40
0
 40
1
 40
1
 40
1
 40
1
 10
76.069246
 20
114.685790
 30
0.0
 10
75.840078
 20
115.277591
 30
0.0
 10
75.998236
 20
115.949391
 30
0.0
 10
76.467349
 20
116.376800
 30
0.0
  0
LWPOLYLINE
  5
113
100
AcDbEntity
  8
Ebene_1
 62
7
100
AcDbPolyline
 90
2
 70
0
 10
91.777048
 20
113.703910
 30
0.0
 10
77.502394
 20
113.703910
 30
0.0
  0
LWPOLYLINE
  5
114
100
AcDbEntity
  8
Ebene_1
 62
7
100
AcDbPolyline
 90
2
 70
0
 10
76.467349
 20
116.376800
 30
0.0
 10
106.026710
 20
143.308260
 30
0.0
  0
SPLINE
  5
115
100
AcDbEntity
  8
Ebene_1
 62
7
100
AcDbSpline
 70
8
 71
3
 72
8
 73
4
 74
0
 40
0
 40
0
 40
0
 40
0
 40
1
 40
1
 40
1
 40
1
 10
120.328400
 20
13.809320
 30
0.0
 10
121.377930
 20
13.801393
 30
0.0
 10
122.387161
 20
14.212953
 30
0.0
 10
123.131853
 20
14.952554
 30
0.0
  0
SPLINE
  5
116
100
AcDbEntity
  8
Ebene_1
 62
7
100
AcDbSpline
 70
8
 71
3
 72
8
 73
4
 74
0
 40
0
 40
0
 40
0
 40
0
 40
1
 40
1
 40
1
 40
1
 10
123.131853
 20
14.952554
 30
0.0
 10
123.876545
 20
15.692156
 30
0.0
 10
124.295018
 20
16.698540
 30
0.0
 10
124.294290
 20
17.748100
 30
0.0
  0
LWPOLYLINE
  5
117
100
AcDbEntity
  8
Ebene_1
 62
7
100
AcDbPolyline
 90
2
 70
0
 10
102.640330
 20
13.942870
 30
0.0
 10
120.328400
 20
13.809320
 30
0.0
  0
SPLINE
  5
118
100
AcDbEntity
  8
Ebene_1
 62
7
100
AcDbSpline
 70
8
 71
3
 72
8
 73
4
 74
0
 40
0
 40
0
 40
0
 40
0
 40
1
 40
1
 40
1
 40
1
 10
124.278890
 20
39.923290
 30
0.0
 10
124.277366
 20
42.119036
 30
0.0
 10
126.049103
 20
43.903974
 30
0.0
 10
128.244800
 20
43.918750
 30
0.0
  0
LWPOLYLINE
  5
119
100
AcDbEntity
  8
Ebene_1
 62
7
100
AcDbPolyline
 90
2
 70
0
 10
124.294290
 20
17.748100
 30
0.0
 10
124.278890
 20
39.923290
 30
0.0
  0
SPLINE
  5
11a
100
AcDbEntity
  8
Ebene_1
 62
7
100
AcDbSpline
 70
8
 71
3
 72
8
 73
4
 74
0
 40
0
 40
0
 40
0
 40
0
 40
1
 40
1
 40
1
 40
1
 10
163.884070
 20
44.158620
 30
0.0
 10
164.488543
 20
44.162689
 30
0.0
 10
165.025683
 20
44.545036
 30
0.0
 10
165.227440
 20
45.114860
 30
0.0
  0
SPLINE
  5
11b
100
AcDbEntity
  8
Ebene_1
 62
7
100
AcDbSpline
 70
8
 71
3
 72
8
 73
4
 74
0
 40
0
 40
0
 40
0
 40
0
 40
1
 40
1
 40
1
 40
1
 10
165.227440
 20
45.114860
 30
0.0
 10
165.429198
 20
45.684683
 30
0.0
 10
165.252326
 20
46.319840
 30
0.0
 10
164.785090
 20
46.703370
 30
0.0
  0
LWPOLYLINE
  5
11c
100
AcDbEntity
  8
Ebene_1
 62
7
100
AcDbPolyline
 90
2
 70
0
 10
128.244800
 20
43.918750
 30
0.0
 10
163.884070
 20
44.158620
 30
0.0
  0
SPLINE
  5
11d
100
AcDbEntity
  8
Ebene_1
 62
7
100
AcDbSpline
 70
8
 71
3
 72
8
 73
4
 74
0
 40
0
 40
0
 40
0
 40
0
 40
1
 40
1
 40
1
 40
1
 10
131.507130
 20
74.019240
 30
0.0
 10
131.049865
 20
74.394588
 30
0.0
 10
130.879480
 20
75.017772
 30
0.0
 10
131.082164
 20
75.573557
 30
0.0
  0
SPLINE
  5
11e
100
AcDbEntity
  8
Ebene_1
 62
7
100
AcDbSpline
 70
8
 71
3
 72
8
 73
4
 74
0
 40
0
 40
0
 40
0
 40
0
 40
1
 40
1
 40
1
 40
1
 10
131.082164
 20
75.573557
 30
0.0
 10
131.284847
 20
76.129342
 30
0.0
 10
131.816404
 20
76.496541
 30
0.0
 10
132.407950
 20
76.489410
 30
0.0
  0
LWPOLYLINE
  5
11f
100
AcDbEntity
  8
Ebene_1
 62
7
100
AcDbPolyline
 90
2
 70
0
 10
164.785090
 20
46.703370
 30
0.0
 10
131.507130
 20
74.019240
 30
0.0
  0
SPLINE
  5
120
100
AcDbEntity
  8
Ebene_1
 62
7
100
AcDbSpline
 70
8
 71
3
 72
8
 73
4
 74
0
 40
0
 40
0
 40
0
 40
0
 40
1
 40
1
 40
1
 40
1
 10
153.652550
 20
76.233180
 30
0.0
 10
154.278035
 20
76.225641
 30
0.0
 10
154.843036
 20
76.605607
 30
0.0
 10
155.071964
 20
77.187741
 30
0.0
  0
SPLINE
  5
121
100
AcDbEntity
  8
Ebene_1
 62
7
100
AcDbSpline
 70
8
 71
3
 72
8
 73
4
 74
0
 40
0
 40
0
 40
0
 40
0
 40
1
 40
1
 40
1
 40
1
 10
155.071964
 20
77.187741
 30
0.0
 10
155.300891
 20
77.769875
 30
0.0
 10
155.146059
 20
78.432919
 30
0.0
 10
154.682990
 20
78.853460
 30
0.0
  0
LWPOLYLINE
  5
122
100
AcDbEntity
  8
Ebene_1
 62
7
100
AcDbPolyline
 90
2
 70
0
 10
132.407950
 20
76.489410
 30
0.0
 10
153.652550
 20
76.233180
 30
0.0
  0
SPLINE
  5
123
100
AcDbEntity
  8
Ebene_1
 62
7
100
AcDbSpline
 70
8
 71
3
 72
8
 73
4
 74
0
 40
0
 40
0
 40
0
 40
0
 40
1
 40
1
 40
1
 40
1
 10
119.245690
 20
111.035760
 30
0.0
 10
118.776679
 20
111.461693
 30
0.0
 10
118.617960
 20
112.132239
 30
0.0
 10
118.846264
 20
112.723227
 30
0.0
  0
SPLINE
  5
124
100
AcDbEntity
  8
Ebene_1
 62
7
100
AcDbSpline
 70
8
 71
3
 72
8
 73
4
 74
0
 40
0
 40
0
 40
0
 40
0
 40
1
 40
1
 40
1
 40
1
 10
118.846264
 20
112.723227
 30
0.0
 10
119.074568
 20
113.314215
 30
0.0
 10
119.642867
 20
113.703908
 30
0.0
 10
120.276420
 20
113.703910
 30
0.0
  0
LWPOLYLINE
  5
125
100
AcDbEntity
  8
Ebene_1
 62
7
100
AcDbPolyline
 90
2
 70
0
 10
154.682990
 20
78.853460
 30
0.0
 10
119.245690
 20
111.035760
 30
0.0
  0
SPLINE
  5
126
100
AcDbEntity
  8
Ebene_1
 62
7
100
AcDbSpline
 70
8
 71
3
 72
8
 73
4
 74
0
 40
0
 40
0
 40
0
 40
0
 40
1
 40
1
 40
1
 40
1
 10
134.551090
 20
113.703910
 30
0.0
 10
135.185712
 20
113.703912
 30
0.0
 10
135.755068
 20
114.093991
 30
0.0
 10
135.984234
 20
114.685792
 30
0.0
  0
SPLINE
  5
127
100
AcDbEntity
  8
Ebene_1
 62
7
100
AcDbSpline
 70
8
 71
3
 72
8
 73
4
 74
0
 40
0
 40
0
 40
0
 40
0
 40
1
 40
1
 40
1
 40
1
 10
135.984234
 20
114.685792
 30
0.0
 10
136.213401
 20
115.277593
 30
0.0
 10
136.055243
 20
115.949392
 30
0.0
 10
135.586130
 20
116.376800
 30
0.0
  0
LWPOLYLINE
  5
128
100
AcDbEntity
  8
Ebene_1
 62
7
100
AcDbPolyline
 90
2
 70
0
 10
120.276420
 20
113.703910
 30
0.0
 10
134.551090
 20
113.703910
 30
0.0
  0
LWPOLYLINE
  5
129
100
AcDbEntity
  8
Ebene_1
 62
7
100
AcDbPolyline
 90
2
 70
0
 10
135.586130
 20
116.376800
 30
0.0
 10
106.026760
 20
143.308260
 30
0.0
  0
SPLINE
  5
12a
100
AcDbEntity
  8
Ebene_1
 62
7
100
AcDbSpline
 70
8
 71
3
 72
8
 73
4
 74
0
 40
0
 40
0
 40
0
 40
0
 40
1
 40
1
 40
1
 40
1
 10
110.705834
 20
138.397314
 30
0.0
 10
109.888981
 20
138.508938
 30
0.0
 10
109.097701
 20
138.049441
 30
0.0
 10
108.750026
 20
137.261573
 30
0.0
  0
LWPOLYLINE
  5
12b
100
AcDbEntity
  8
Ebene_1
 62
7
100
AcDbPolyline
 90
2
 70
0
 10
116.848948
 20
137.557848
 30
0.0
 10
110.705834
 20
138.397314
 30
0.0
  0
SPLINE
  5
12c
100
AcDbEntity
  8
Ebene_1
 62
7
100
AcDbSpline
 70
8
 71
3
 72
8
 73
4
 74
0
 40
0
 40
0
 40
0
 40
0
 40
1
 40
1
 40
1
 40
1
 10
106.135351
 20
131.336440
 30
0.0
 10
106.033329
 20
131.105249
 30
0.0
 10
105.811553
 20
130.959427
 30
0.0
 10
105.569905
 20
130.964649
 30
0.0
  0
SPLINE
  5
12d
100
AcDbEntity
  8
Ebene_1
 62
7
100
AcDbSpline
 70
8
 71
3
 72
8
 73
4
 74
0
 40
0
 40
0
 40
0
 40
0
 40
1
 40
1
 40
1
 40
1
 10
105.569905
 20
130.964649
 30
0.0
 10
105.328258
 20
130.969871
 30
0.0
 10
105.112326
 20
131.125152
 30
0.0
 10
105.019362
 20
131.360557
 30
0.0
  0
LWPOLYLINE
  5
12e
100
AcDbEntity
  8
Ebene_1
 62
7
100
AcDbPolyline
 90
2
 70
0
 10
108.750026
 20
137.261573
 30
0.0
 10
106.135351
 20
131.336440
 30
0.0
  0
SPLINE
  5
12f
100
AcDbEntity
  8
Ebene_1
 62
7
100
AcDbSpline
 70
8
 71
3
 72
8
 73
4
 74
0
 40
0
 40
0
 40
0
 40
0
 40
1
 40
1
 40
1
 40
1
 10
102.636818
 20
137.393684
 30
0.0
 10
102.320010
 20
138.195913
 30
0.0
 10
101.547225
 20
138.689212
 30
0.0
 10
100.726724
 20
138.612972
 30
0.0
  0
LWPOLYLINE
  5
130
100
AcDbEntity
  8
Ebene_1
 62
7
100
AcDbPolyline
 90
2
 70
0
 10
105.019362
 20
131.360557
 30
0.0
 10
102.636818
 20
137.393684
 30
0.0
  0
SPLINE
  5
131
100
AcDbEntity
  8
Ebene_1
 62
7
100
AcDbSpline
 70
8
 71
3
 72
8
 73
4
 74
0
 40
0
 40
0
 40
0
 40
0
 40
1
 40
1
 40
1
 40
1
 10
94.556185
 20
138.039617
 30
0.0
 10
94.315418
 20
138.017246
 30
0.0
 10
94.084843
 20
138.146988
 30
0.0
 10
93.968305
 20
138.370410
 30
0.0
  0
SPLINE
  5
132
100
AcDbEntity
  8
Ebene_1
 62
7
100
AcDbSpline
 70
8
 71
3
 72
8
 73
4
 74
0
 40
0
 40
0
 40
0
 40
0
 40
1
 40
1
 40
1
 40
1
 10
93.968305
 20
138.370410
 30
0.0
 10
93.851768
 20
138.593832
 30
0.0
 10
93.871253
 20
138.868784
 30
0.0
 10
94.017986
 20
139.071435
 30
0.0
  0
LWPOLYLINE
  5
133
100
AcDbEntity
  8
Ebene_1
 62
7
100
AcDbPolyline
 90
2
 70
0
 10
100.726724
 20
138.612972
 30
0.0
 10
94.556185
 20
138.039617
 30
0.0
  0
SPLINE
  5
134
100
AcDbEntity
  8
Ebene_1
 62
7
100
AcDbSpline
 70
8
 71
3
 72
8
 73
4
 74
0
 40
0
 40
0
 40
0
 40
0
 40
1
 40
1
 40
1
 40
1
 10
97.778555
 20
144.265096
 30
0.0
 10
98.278600
 20
144.955700
 30
0.0
 10
98.297096
 20
145.908496
 30
0.0
 10
97.824271
 20
146.620125
 30
0.0
  0
LWPOLYLINE
  5
135
100
AcDbEntity
  8
Ebene_1
 62
7
100
AcDbPolyline
 90
2
 70
0
 10
94.017986
 20
139.071435
 30
0.0
 10
97.778555
 20
144.265096
 30
0.0
  0
SPLINE
  5
136
100
AcDbEntity
  8
Ebene_1
 62
7
100
AcDbSpline
 70
8
 71
3
 72
8
 73
4
 74
0
 40
0
 40
0
 40
0
 40
0
 40
1
 40
1
 40
1
 40
1
 10
94.268405
 20
151.971903
 30
0.0
 10
94.129660
 20
152.180722
 30
0.0
 10
94.120861
 20
152.456286
 30
0.0
 10
94.245971
 20
152.674486
 30
0.0
  0
SPLINE
  5
137
100
AcDbEntity
  8
Ebene_1
 62
7
100
AcDbSpline
 70
8
 71
3
 72
8
 73
4
 74
0
 40
0
 40
0
 40
0
 40
0
 40
1
 40
1
 40
1
 40
1
 10
94.245971
 20
152.674486
 30
0.0
 10
94.371082
 20
152.892685
 30
0.0
 10
94.606499
 20
153.012356
 30
0.0
 10
94.846195
 20
152.979601
 30
0.0
  0
LWPOLYLINE
  5
138
100
AcDbEntity
  8
Ebene_1
 62
7
100
AcDbPolyline
 90
2
 70
0
 10
97.824271
 20
146.620125
 30
0.0
 10
94.268405
 20
151.971903
 30
0.0
  0
SPLINE
  5
139
100
AcDbEntity
  8
Ebene_1
 62
7
100
AcDbSpline
 70
8
 71
3
 72
8
 73
4
 74
0
 40
0
 40
0
 40
0
 40
0
 40
1
 40
1
 40
1
 40
1
 10
100.989309
 20
152.140137
 30
0.0
 10
101.806162
 20
152.028513
 30
0.0
 10
102.597442
 20
152.488010
 30
0.0
 10
102.945118
 20
153.275878
 30
0.0
  0
LWPOLYLINE
  5
13a
100
AcDbEntity
  8
Ebene_1
 62
7
100
AcDbPolyline
 90
2
 70
0
 10
94.846195
 20
152.979601
 30
0.0
 10
100.989309
 20
152.140137
 30
0.0
  0
SPLINE
  5
13b
100
AcDbEntity
  8
Ebene_1
 62
7
100
AcDbSpline
 70
8
 71
3
 72
8
 73
4
 74
0
 40
0
 40
0
 40
0
 40
0
 40
1
 40
1
 40
1
 40
1
 10
105.559791
 20
159.201011
 30
0.0
 10
105.661812
 20
159.432203
 30
0.0
 10
105.883588
 20
159.578026
 30
0.0
 10
106.125237
 20
159.572804
 30
0.0
  0
SPLINE
  5
13c
100
AcDbEntity
  8
Ebene_1
 62
7
100
AcDbSpline
 70
8
 71
3
 72
8
 73
4
 74
0
 40
0
 40
0
 40
0
 40
0
 40
1
 40
1
 40
1
 40
1
 10
106.125237
 20
159.572804
 30
0.0
 10
106.366885
 20
159.567582
 30
0.0
 10
106.582818
 20
159.412300
 30
0.0
 10
106.675781
 20
159.176894
 30
0.0
  0
LWPOLYLINE
  5
13d
100
AcDbEntity
  8
Ebene_1
 62
7
100
AcDbPolyline
 90
2
 70
0
 10
102.945118
 20
153.275878
 30
0.0
 10
105.559791
 20
159.201011
 30
0.0
  0
SPLINE
  5
13e
100
AcDbEntity
  8
Ebene_1
 62
7
100
AcDbSpline
 70
8
 71
3
 72
8
 73
4
 74
0
 40
0
 40
0
 40
0
 40
0
 40
1
 40
1
 40
1
 40
1
 10
109.058325
 20
153.143766
 30
0.0
 10
109.375133
 20
152.341538
 30
0.0
 10
110.147917
 20
151.848239
 30
0.0
 10
110.968417
 20
151.924478
 30
0.0
  0
LWPOLYLINE
  5
13f
100
AcDbEntity
  8
Ebene_1
 62
7
100
AcDbPolyline
 90
2
 70
0
 10
106.675781
 20
159.176894
 30
0.0
 10
109.058325
 20
153.143766
 30
0.0
  0
SPLINE
  5
140
100
AcDbEntity
  8
Ebene_1
 62
7
100
AcDbSpline
 70
8
 71
3
 72
8
 73
4
 74
0
 40
0
 40
0
 40
0
 40
0
 40
1
 40
1
 40
1
 40
1
 10
117.138958
 20
152.497833
 30
0.0
 10
117.379725
 20
152.520205
 30
0.0
 10
117.610300
 20
152.390463
 30
0.0
 10
117.726838
 20
152.167041
 30
0.0
  0
SPLINE
  5
141
100
AcDbEntity
  8
Ebene_1
 62
7
100
AcDbSpline
 70
8
 71
3
 72
8
 73
4
 74
0
 40
0
 40
0
 40
0
 40
0
 40
1
 40
1
 40
1
 40
1
 10
117.726838
 20
152.167041
 30
0.0
 10
117.843375
 20
151.943619
 30
0.0
 10
117.823890
 20
151.668667
 30
0.0
 10
117.677157
 20
151.466016
 30
0.0
  0
LWPOLYLINE
  5
142
100
AcDbEntity
  8
Ebene_1
 62
7
100
AcDbPolyline
 90
2
 70
0
 10
110.968417
 20
151.924478
 30
0.0
 10
117.138958
 20
152.497833
 30
0.0
  0
SPLINE
  5
143
100
AcDbEntity
  8
Ebene_1
 62
7
100
AcDbSpline
 70
8
 71
3
 72
8
 73
4
 74
0
 40
0
 40
0
 40
0
 40
0
 40
1
 40
1
 40
1
 40
1
 10
113.916587
 20
146.272354
 30
0.0
 10
113.416541
 20
145.581750
 30
0.0
 10
113.398046
 20
144.628953
 30
0.0
 10
113.870872
 20
143.917324
 30
0.0
  0
LWPOLYLINE
  5
144
100
AcDbEntity
  8
Ebene_1
 62
7
100
AcDbPolyline
 90
2
 70
0
 10
117.677157
 20
151.466016
 30
0.0
 10
113.916587
 20
146.272354
 30
0.0
  0
SPLINE
  5
145
100
AcDbEntity
  8
Ebene_1
 62
7
100
AcDbSpline
 70
8
 71
3
 72
8
 73
4
 74
0
 40
0
 40
0
 40
0
 40
0
 40
1
 40
1
 40
1
 40
1
 10
117.426738
 20
138.565546
 30
0.0
 10
117.565483
 20
138.356726
 30
0.0
 10
117.574282
 20
138.081163
 30
0.0
 10
117.449172
 20
137.862963
 30
0.0
  0
SPLINE
  5
146
100
AcDbEntity
  8
Ebene_1
 62
7
100
AcDbSpline
 70
8
 71
3
 72
8
 73
4
 74
0
 40
0
 40
0
 40
0
 40
0
 40
1
 40
1
 40
1
 40
1
 10
117.449172
 20
137.862963
 30
0.0
 10
117.324062
 20
137.644764
 30
0.0
 10
117.088645
 20
137.525093
 30
0.0
 10
116.848948
 20
137.557848
 30
0.0
  0
LWPOLYLINE
  5
147
100
AcDbEntity
  8
Ebene_1
 62
7
100
AcDbPolyline
 90
2
 70
0
 10
113.870872
 20
143.917324
 30
0.0
 10
117.426738
 20
138.565546
 30
0.0
  0
LWPOLYLINE
  5
148
100
AcDbEntity
  8
Ebene_1
 62
7
100
AcDbPolyline
 90
1
 70
1
 10
116.848948
 20
137.557848
 30
0.0
  0
ENDSEC
  0
SECTION
  2
OBJECTS
  0
DICTIONARY
  5
C
330
0
100
AcDbDictionary
  3
ACAD_GROUP
350
D
  3
ACAD_MLINESTYLE
350
17
  0
DICTIONARY
  5
D
330
C
100
AcDbDictionary
  0
DICTIONARY
  5
1A
330
C
100
AcDbDictionary
  0
DICTIONARY
  5
17
330
C
100
AcDbDictionary
  3
STANDARD
350
18
  0
DICTIONARY
  5
19
330
C
100
AcDbDictionary
  0
ENDSEC
  0
EOF
