<?xml version="1.0" encoding="UTF-8" standalone="no"?>
<!-- Created with Inkscape (http://www.inkscape.org/) -->

<svg
   width="210mm"
   height="297mm"
   viewBox="0 0 210 297"
   version="1.1"
   id="svg5"
   inkscape:version="1.1.1 (eb90963e84, 2021-10-02)"
   sodipodi:docname="christmas_tree_triangles.svg"
   xmlns:inkscape="http://www.inkscape.org/namespaces/inkscape"
   xmlns:sodipodi="http://sodipodi.sourceforge.net/DTD/sodipodi-0.dtd"
   xmlns="http://www.w3.org/2000/svg"
   xmlns:svg="http://www.w3.org/2000/svg">
  <sodipodi:namedview
     id="namedview7"
     pagecolor="#505050"
     bordercolor="#ffffff"
     borderopacity="1"
     inkscape:pageshadow="0"
     inkscape:pageopacity="0"
     inkscape:pagecheckerboard="1"
     inkscape:document-units="mm"
     showgrid="false"
     inkscape:zoom="0.75187991"
     inkscape:cx="269.32492"
     inkscape:cy="638.39982"
     inkscape:window-width="1853"
     inkscape:window-height="1025"
     inkscape:window-x="67"
     inkscape:window-y="27"
     inkscape:window-maximized="1"
     inkscape:current-layer="layer1" />
  <defs
     id="defs2">
    <inkscape:path-effect
       effect="fillet_chamfer"
       id="path-effect3153"
       is_visible="true"
       lpeversion="1"
       satellites_param="F,0,0,1,0,10.583333,0,1 @ F,0,0,1,0,10.583333,0,1 @ F,0,0,1,0,10.583333,0,1 @ F,0,0,1,0,10.583333,0,1 @ F,0,0,1,0,10.583333,0,1 @ F,0,0,1,0,10.583333,0,1 @ F,0,0,1,0,10.583333,0,1 @ F,0,0,1,0,10.583333,0,1 @ F,0,0,1,0,10.583333,0,1 @ F,0,0,1,0,10.583333,0,1 @ F,0,0,1,0,10.583333,0,1 @ F,0,0,1,0,10.583333,0,1"
       unit="px"
       method="auto"
       mode="F"
       radius="40"
       chamfer_steps="1"
       flexible="false"
       use_knot_distance="true"
       apply_no_radius="true"
       apply_with_radius="true"
       only_selected="false"
       hide_knots="false" />
    <inkscape:path-effect
       effect="fillet_chamfer"
       id="path-effect3151"
       is_visible="true"
       lpeversion="1"
       satellites_param="F,0,0,1,0,13.229167,0,1 @ F,0,0,1,0,13.229167,0,1 @ F,0,0,1,0,13.229167,0,1"
       unit="px"
       method="auto"
       mode="F"
       radius="50"
       chamfer_steps="1"
       flexible="false"
       use_knot_distance="true"
       apply_no_radius="true"
       apply_with_radius="true"
       only_selected="false"
       hide_knots="false" />
    <inkscape:path-effect
       effect="fillet_chamfer"
       id="path-effect3149"
       is_visible="true"
       lpeversion="1"
       satellites_param="F,0,0,1,0,13.229167,0,1 @ F,0,0,1,0,13.229167,0,1 @ F,0,0,1,0,13.229167,0,1"
       unit="px"
       method="auto"
       mode="F"
       radius="50"
       chamfer_steps="1"
       flexible="false"
       use_knot_distance="true"
       apply_no_radius="true"
       apply_with_radius="true"
       only_selected="false"
       hide_knots="false" />
    <inkscape:path-effect
       effect="fillet_chamfer"
       id="path-effect3147"
       is_visible="true"
       lpeversion="1"
       satellites_param="F,0,0,1,0,13.229167,0,1 @ F,0,0,1,0,13.229167,0,1 @ F,0,0,1,0,13.229167,0,1"
       unit="px"
       method="auto"
       mode="F"
       radius="50"
       chamfer_steps="1"
       flexible="false"
       use_knot_distance="true"
       apply_no_radius="true"
       apply_with_radius="true"
       only_selected="false"
       hide_knots="false" />
    <inkscape:path-effect
       effect="fillet_chamfer"
       id="path-effect3145"
       is_visible="true"
       lpeversion="1"
       satellites_param="F,0,0,1,0,3.96875,0,1 @ F,0,0,1,0,3.96875,0,1 @ F,0,0,1,0,3.96875,0,1 @ F,0,0,1,0,3.96875,0,1"
       unit="px"
       method="auto"
       mode="F"
       radius="15"
       chamfer_steps="1"
       flexible="false"
       use_knot_distance="true"
       apply_no_radius="true"
       apply_with_radius="true"
       only_selected="false"
       hide_knots="false" />
  </defs>
  <g
     inkscape:label="Ebene 1"
     inkscape:groupmode="layer"
     id="layer1">
    <g
       id="g3204"
       transform="matrix(0.54748498,0,0,0.59501192,20.936058,43.179608)">
      <path
         sodipodi:type="star"
         style="fill:#ffff00;fill-rule:evenodd"
         id="path2305"
         inkscape:flatsided="true"
         sodipodi:sides="3"
         sodipodi:cx="237.10263"
         sodipodi:cy="450.72275"
         sodipodi:r1="182.42577"
         sodipodi:r2="91.212883"
         sodipodi:arg1="0.53149313"
         sodipodi:arg2="1.5786907"
         inkscape:rounded="0"
         inkscape:randomized="0"
         d="M 381.13424,543.07553 91.630901,540.79004 A 7.6378631,7.6378631 60.452313 0 1 85.106967,529.28139 L 231.83793,279.70689 a 7.6378631,7.6378631 0.45231319 0 1 13.22875,0.10443 l 142.77238,251.85999 a 7.6378631,7.6378631 120.45231 0 1 -6.70482,11.40422 z"
         transform="matrix(0.26331692,0,0,0.15132814,50.750139,83.482449)"
         inkscape:transform-center-x="0.18960523"
         inkscape:transform-center-y="-6.8069565"
         inkscape:path-effect="#path-effect3151" />
      <path
         sodipodi:type="star"
         style="fill:#ffff00;fill-rule:evenodd"
         id="path2331"
         inkscape:flatsided="true"
         sodipodi:sides="3"
         sodipodi:cx="518.22467"
         sodipodi:cy="428.89703"
         sodipodi:r1="191.93881"
         sodipodi:r2="95.969406"
         sodipodi:arg1="0.52323061"
         sodipodi:arg2="1.5704282"
         inkscape:rounded="0"
         inkscape:randomized="0"
         d="m 671.25471,524.81011 -305.98942,0.11265 a 7.6378631,7.6378631 59.978906 0 1 -6.6188,-11.45436 L 511.54364,248.41746 a 7.6378631,7.6378631 179.97891 0 1 13.22917,-0.005 l 153.09227,264.93829 a 7.6378631,7.6378631 119.97891 0 1 -6.61037,11.45923 z"
         transform="matrix(0.34558883,0,0,0.20777193,-64.959158,94.837772)"
         inkscape:transform-center-x="-0.012207461"
         inkscape:transform-center-y="-9.963519"
         inkscape:path-effect="#path-effect3149" />
      <path
         sodipodi:type="star"
         style="fill:#ffff00;fill-rule:evenodd"
         id="path2333"
         inkscape:flatsided="true"
         sodipodi:sides="3"
         sodipodi:cx="441.79416"
         sodipodi:cy="600.05194"
         sodipodi:r1="256.68268"
         sodipodi:r2="128.34134"
         sodipodi:arg1="0.52928984"
         sodipodi:arg2="1.5764874"
         inkscape:rounded="0"
         inkscape:randomized="0"
         d="M 650.12493,729.581 232.0026,727.20141 a 7.6378631,7.6378631 60.326074 0 1 -6.54928,-11.49425 L 436.57527,354.79238 a 7.6378631,7.6378631 0.32607397 0 1 13.22895,0.0753 l 207.00039,363.29436 a 7.6378631,7.6378631 120.32607 0 1 -6.67968,11.41897 z"
         transform="matrix(0.31014289,0,0,0.19486504,-23.332614,103.54937)"
         inkscape:transform-center-x="0.22652959"
         inkscape:transform-center-y="-12.381163"
         inkscape:path-effect="#path-effect3147" />
      <path
         style="fill:#ffff00;fill-rule:evenodd;stroke-width:0.264583"
         id="rect2437"
         width="36.39595"
         height="37.691483"
         x="95.24189"
         y="236.04964"
         inkscape:path-effect="#path-effect3145"
         d="m 99.21064,236.04964 h 28.45845 a 3.96875,3.96875 45 0 1 3.96875,3.96875 v 29.75398 a 3.96875,3.96875 135 0 1 -3.96875,3.96875 H 99.21064 a 3.96875,3.96875 45 0 1 -3.96875,-3.96875 v -29.75398 a 3.96875,3.96875 135 0 1 3.96875,-3.96875 z"
         sodipodi:type="rect" />
      <path
         sodipodi:type="star"
         style="fill:#ffff00"
         id="path2858"
         inkscape:flatsided="false"
         sodipodi:sides="6"
         sodipodi:cx="176.60461"
         sodipodi:cy="288.59348"
         sodipodi:r1="122.20537"
         sodipodi:r2="61.102684"
         sodipodi:arg1="0.53087458"
         sodipodi:arg2="1.0544734"
         inkscape:rounded="0"
         inkscape:randomized="0"
         d="m 271.47749,349.24394 -54.19464,-6.29248 a 14.457102,14.457102 150.41687 0 0 -14.85289,8.43183 l -22.3743,49.75987 a 4.6664771,4.6664771 0.41687167 0 1 -8.53945,-0.0621 l -21.64787,-50.08018 a 14.457102,14.457102 30.416872 0 0 -14.72862,-8.64706 l -54.280469,5.50322 a 4.6664771,4.6664771 60.416872 0 1 -4.215915,-7.42644 l 32.546774,-43.7877 a 14.457102,14.457102 90.416872 0 0 0.12426,-17.0789 L 77.408206,235.30733 a 4.6664771,4.6664771 120.41687 0 1 4.323531,-7.36432 l 54.194643,6.29249 a 14.457102,14.457102 150.41687 0 0 14.85289,-8.43183 l 22.3743,-49.75988 a 4.6664771,4.6664771 0.41687167 0 1 8.53945,0.0621 l 21.64787,50.08018 a 14.457102,14.457102 30.416872 0 0 14.72862,8.64707 l 54.28047,-5.50323 a 4.6664771,4.6664771 60.416872 0 1 4.21591,7.42644 l -32.54677,43.7877 a 14.457102,14.457102 90.416872 0 0 -0.12426,17.0789 l 31.90616,44.25664 a 4.6664771,4.6664771 120.41687 0 1 -4.32353,7.36432 z"
         transform="matrix(0.13903099,0,0,0.13510112,89.04836,83.207644)"
         inkscape:path-effect="#path-effect3153" />
    </g>
  </g>
</svg>
