<?xml version="1.0" encoding="UTF-8" standalone="no"?>
<!-- Created with Inkscape (http://www.inkscape.org/) -->

<svg
   width="210mm"
   height="297mm"
   viewBox="0 0 210 297"
   version="1.1"
   id="svg5"
   inkscape:version="1.1.1 (eb90963e84, 2021-10-02)"
   sodipodi:docname="christmas_tree.dxf"
   inkscape:dataloss="true"
   xmlns:inkscape="http://www.inkscape.org/namespaces/inkscape"
   xmlns:sodipodi="http://sodipodi.sourceforge.net/DTD/sodipodi-0.dtd"
   xmlns="http://www.w3.org/2000/svg"
   xmlns:svg="http://www.w3.org/2000/svg">
  <sodipodi:namedview
     id="namedview7"
     pagecolor="#505050"
     bordercolor="#ffffff"
     borderopacity="1"
     inkscape:pageshadow="0"
     inkscape:pageopacity="0"
     inkscape:pagecheckerboard="1"
     inkscape:document-units="mm"
     showgrid="false"
     inkscape:zoom="0.90028971"
     inkscape:cx="257.13945"
     inkscape:cy="733.65273"
     inkscape:window-width="1657"
     inkscape:window-height="824"
     inkscape:window-x="113"
     inkscape:window-y="60"
     inkscape:window-maximized="0"
     inkscape:current-layer="layer1"
     scale-x="10" />
  <defs
     id="defs2">
    <inkscape:path-effect
       effect="fillet_chamfer"
       id="path-effect4656"
       is_visible="true"
       lpeversion="1"
       satellites_param="F,0,0,1,0,6.8791667,0,1 @ F,0,0,1,0,6.8791667,0,1 @ F,0,0,1,0,6.8791667,0,1 @ F,0,0,1,0,6.8791667,0,1 @ F,0,0,1,0,6.8791667,0,1 @ F,0,0,1,0,6.8791667,0,1 @ F,0,0,1,0,6.8791667,0,1 @ F,0,0,1,0,6.8791667,0,1 @ F,0,0,1,0,6.8791667,0,1 @ F,0,0,1,0,6.8791667,0,1 @ F,0,0,1,0,6.8791667,0,1 @ F,0,0,1,0,6.8791667,0,1"
       unit="px"
       method="auto"
       mode="F"
       radius="26"
       chamfer_steps="1"
       flexible="false"
       use_knot_distance="true"
       apply_no_radius="true"
       apply_with_radius="true"
       only_selected="false"
       hide_knots="false" />
    <inkscape:path-effect
       effect="fillet_chamfer"
       id="path-effect2932"
       is_visible="true"
       lpeversion="1"
       satellites_param="F,0,0,1,0,0,0,1 @ F,0,0,1,0,3.96875,0,1 @ F,0,0,1,0,3.96875,0,1 @ F,0,0,1,0,3.96875,0,1 @ F,0,0,1,0,3.96875,0,1 @ F,0,0,1,0,3.96875,0,1 @ F,0,0,1,0,3.96875,0,1 @ F,0,0,1,0,3.96875,0,1 @ F,0,0,1,0,3.96875,0,1"
       unit="px"
       method="auto"
       mode="F"
       radius="15"
       chamfer_steps="1"
       flexible="false"
       use_knot_distance="true"
       apply_no_radius="true"
       apply_with_radius="true"
       only_selected="false"
       hide_knots="false" />
    <inkscape:path-effect
       effect="fillet_chamfer"
       id="path-effect2930"
       is_visible="true"
       lpeversion="1"
       satellites_param="F,0,0,1,0,0,0,1 @ F,0,0,1,0,3.96875,0,1 @ F,0,0,1,0,3.96875,0,1 @ F,0,0,1,0,3.96875,0,1 @ F,0,0,1,0,3.96875,0,1 @ F,0,0,1,0,3.96875,0,1 @ F,0,0,1,0,3.96875,0,1 @ F,0,0,1,0,3.96875,0,1 @ F,0,0,1,0,3.96875,0,1"
       unit="px"
       method="auto"
       mode="F"
       radius="15"
       chamfer_steps="1"
       flexible="false"
       use_knot_distance="true"
       apply_no_radius="true"
       apply_with_radius="true"
       only_selected="false"
       hide_knots="false" />
    <inkscape:path-effect
       effect="ellipse_5pts"
       id="path-effect2928"
       is_visible="true"
       lpeversion="1" />
    <inkscape:path-effect
       effect="bend_path"
       id="path-effect2924"
       is_visible="true"
       lpeversion="1"
       bendpath="M 50.210372,162.31749 H 120.45616"
       prop_scale="1"
       scale_y_rel="false"
       vertical="false"
       hide_knot="false" />
  </defs>
  <g
     inkscape:label="Ebene 1"
     inkscape:groupmode="layer"
     id="layer1">
    <g
       id="g2936"
       transform="translate(-4.1071982,49.075073)">
      <path
         id="path1778"
         style="fill:none;stroke:#000000;stroke-width:1.88045px;stroke-linecap:butt;stroke-linejoin:miter;stroke-opacity:1"
         transform="matrix(0.26458333,0,0,0.26458333,4.1071982,-49.075073)"
         d="m 400.73047,580.88281 -111.7207,101.78711 a 5.8085669,5.8085669 0 0 0 3.91211,10.10352 h 53.95117 a 5.7946481,5.7946481 0 0 1 3.89648,10.08398 L 216.83398,824.49023 a 5.6909329,5.6909329 0 0 0 3.89454,9.9043 l 80.29296,-0.96875 a 5.266077,5.266077 0 0 1 3.40625,9.33594 L 178.65234,946.00195 a 5.4249097,5.4249097 0 0 0 3.4043,9.61914 l 134.70117,0.90625 a 15.090769,15.090769 0 0 1 14.98828,15.10157 l -0.0586,83.81059 a 14.87679,14.87679 0 0 0 14.99023,14.8867 l 66.85157,-0.5039 -11.86524,-453.28128 c -0.53684,-0.40291 -1.07237,-0.80942 -1.64844,-1.15235 -0.3799,-0.2262 -0.81596,-0.33691 -1.2246,-0.50586 -1.42077,-0.55808 -0.89892,-0.41644 -1.83594,-0.65039 -0.11057,-0.0274 -0.21928,-0.0626 -0.33008,-0.0898 -0.12274,-0.002 -0.24204,-0.005 -0.35938,-0.01 -0.14967,0.037 -0.3057,0.0885 -0.34179,-0.0176 -0.14501,-0.007 -0.28947,-0.0131 -0.4043,-0.0176 0.16809,-0.004 0.29165,-0.009 0.39453,-0.0156 -1.20723,-4.90703 -2.27125,-4.77367 -0.42383,-4.86914 0.15657,0.002 0.31385,0.006 0.47071,0.0117 2.2e-4,-0.001 -2.3e-4,-0.003 0,-0.004 0.0283,-0.16713 0.33924,-0.0169 0.50781,0.002 0.14131,0.0152 0.28296,0.0317 0.42383,0.0508 0.33202,-0.0337 0.65131,-0.16114 0.98437,-0.1836 0.0811,-0.006 0.16277,-0.01 0.24414,-0.0117 1.17098,-0.0273 2.36497,0.34981 3.3711,0.92383 z" />
      <path
         id="path1778-3"
         style="fill:none;stroke:#000000;stroke-width:1.88045px;stroke-linecap:butt;stroke-linejoin:miter;stroke-opacity:1"
         transform="matrix(0.26458333,0,0,0.26458333,4.1071982,-49.075073)"
         d="m 400.73047,580.88281 -0.74609,28.46485 c 0.57794,0.17517 1.1334,0.42623 1.63671,0.72656 1.19403,0.69188 2.37876,1.40005 3.1211,2.60742 0.0326,0.0455 0.0674,0.0893 0.10351,0.13086 0.2456,0.1778 0.49025,0.35821 0.73242,0.54102 0.77325,0.38499 1.75527,0.52002 2.44727,0.96093 1.39151,0.83702 2.6516,1.79467 3.98438,2.72266 1.46237,1.01824 0.83216,0.47212 2.58593,1.82617 0.34689,0.26782 0.67182,0.56255 1.00782,0.84375 h 0.002 c 1.54253,1.29028 1.89904,2.69185 1.52539,3.66602 0.0134,-0.002 0.0152,-0.002 0.0293,-0.004 0.40414,0.0507 0.8015,0.0379 1.20507,0.0606 4.8288,0.2629 4.55874,5.15027 -0.26953,4.8789 -0.11074,-0.006 -0.37875,-0.0262 -0.625,-0.0449 -0.19238,0.0552 -0.38713,0.11074 -0.41992,0.11524 -1.63219,0.21301 -1.42027,0.22779 -3.07226,-0.64649 -0.13115,-0.0692 -0.20781,-0.20938 -0.3125,-0.31445 -0.60926,-0.61255 -1.21499,-1.23148 -1.84375,-1.82422 -1.33225,-1.33085 -2.57744,-2.75023 -3.97461,-4.01172 -1.89978,-1.64254 -3.80788,-3.28526 -5.83008,-4.77734 -0.6576,-0.48526 -1.29968,-0.99796 -2.00196,-1.41602 -0.0599,-0.0357 -0.12318,-0.0651 -0.18554,-0.0957 l -11.89844,454.52933 66.85352,0.5039 a 14.87684,14.87684 0 0 0 14.98828,-14.8867 l -0.0586,-83.81059 a 15.090819,15.090819 0 0 1 14.99024,-15.10157 l 134.69922,-0.90625 a 5.4249097,5.4249097 0 0 0 3.40625,-9.61914 L 497.03516,842.76172 a 5.2660774,5.2660774 0 0 1 3.40429,-9.33594 l 80.29493,0.96875 a 5.6909329,5.6909329 0 0 0 3.89453,-9.9043 L 450.69141,702.85742 a 5.7946477,5.7946477 0 0 1 3.89648,-10.08398 h 53.95117 a 5.808565,5.808565 0 0 0 3.91211,-10.10352 z m 17.06055,47.29102 c -0.0338,0.009 -0.13838,0.039 -0.22071,0.0625 0.003,1.1e-4 0.003,-1.1e-4 0.006,0 0.0714,-0.0208 0.28703,-0.0814 0.21485,-0.0625 z" />
    </g>
    <path
       id="path4519"
       transform="matrix(0.20109281,0,0,0.21217924,67.846449,50.691408)"
       inkscape:transform-center-y="-3.4472832e-06"
       d="m 243.68101,512.54187 -30.54865,-3.9564 a 9.3971165,9.3971165 151.17336 0 0 -9.7259,5.35274 l -13.00233,27.92513 a 3.0332102,3.0332102 1.1733587 0 1 -5.54962,-0.11366 l -11.84798,-28.43411 a 9.3971165,9.3971165 31.173359 0 0 -9.49857,-5.7465 l -30.68503,2.70222 a 3.0332102,3.0332102 61.173359 0 1 -2.67637,-4.86295 l 18.70066,-24.47771 a 9.3971165,9.3971165 91.173359 0 0 0.22734,-11.09924 l -17.68271,-25.22291 a 3.0332102,3.0332102 121.17336 0 1 2.87325,-4.74928 l 30.54865,3.95639 a 9.3971165,9.3971165 151.17336 0 0 9.7259,-5.35274 l 13.00232,-27.92513 a 3.0332102,3.0332102 1.1733587 0 1 5.54963,0.11366 l 11.84798,28.43411 a 9.3971165,9.3971165 31.173359 0 0 9.49856,5.7465 l 30.68504,-2.70222 a 3.0332102,3.0332102 61.173359 0 1 2.67637,4.86295 l -18.70067,24.47771 a 9.3971165,9.3971165 91.173359 0 0 -0.22733,11.09925 l 17.68271,25.22291 a 3.0332102,3.0332102 121.17336 0 1 -2.87325,4.74928 z"
       style="fill:#ffff00;fill-rule:evenodd;fill-opacity:0.00614584;stroke:#000000;stroke-opacity:1;stroke-width:1.97035597;stroke-miterlimit:4;stroke-dasharray:none" />
  </g>
  <path
     style="fill:#ff0000;fill-opacity:1;fill-rule:nonzero;stroke:none"
     id="path7300"
     d="m 109.96191,163.96396 c -0.0889,-0.0744 -0.17503,-0.15233 -0.26681,-0.22319 -0.46402,-0.35826 -0.29704,-0.2138 -0.68396,-0.48321 -0.35263,-0.24553 -0.68604,-0.49895 -1.05421,-0.72041 -0.26108,-0.16635 -0.67928,-0.16717 -0.86884,-0.43164 -0.19641,-0.31945 -0.5098,-0.50683 -0.82572,-0.68989 -0.29115,-0.17373 -0.64754,-0.28536 -0.99069,-0.26056 -0.089,0.006 -0.17424,0.0407 -0.26303,0.0492 -0.12198,-0.008 -0.24563,-0.0152 -0.36853,-0.0167 -0.4896,0.0253 -0.20621,-0.0101 0.11385,1.29473 0.0112,0.0455 0.0941,-0.005 0.14062,5.1e-4 0.0454,0.006 0.0889,0.0217 0.13323,0.0327 0.24792,0.0619 0.10947,0.0246 0.48538,0.17226 0.10812,0.0447 0.22383,0.0742 0.32435,0.13405 0.18581,0.11061 0.35576,0.24602 0.52975,0.37441 0.53504,0.39478 1.03967,0.82969 1.54232,1.26428 0.36967,0.33377 0.6993,0.70927 1.05179,1.06139 0.16636,0.15683 0.32628,0.32021 0.48748,0.48228 0.0277,0.0278 0.0484,0.0651 0.0831,0.0834 0.43709,0.23132 0.38097,0.22755 0.81282,0.17119 0.0146,-0.002 0.16385,-0.0463 0.19579,-0.0545 0.0191,-0.005 -0.0378,0.011 -0.0567,0.0165 -0.36189,-0.0151 0.0571,0.0146 0.13727,0.0191 1.27748,0.0718 1.34912,-1.22094 0.0715,-1.2905 v 0 c -0.10678,-0.006 -0.21216,-0.003 -0.31909,-0.0164 -0.21824,0.0325 -0.12093,0.01 -0.25417,0.0472 -0.0343,0.01 -0.13668,0.0165 -0.10311,0.0285 0.56869,0.20393 -0.19605,-0.27731 0.43134,0.16663 0.0343,0.0183 -0.0549,-0.0551 -0.0824,-0.0827 -0.16223,-0.16311 -0.32308,-0.32768 -0.4906,-0.48541 -0.37452,-0.37375 -0.7238,-0.77335 -1.11975,-1.12454 -0.76766,-0.66357 -1.54208,-1.34664 -2.42466,-1.85583 -0.11239,-0.0648 -0.23998,-0.0987 -0.35997,-0.14812 -0.29465,-0.10834 -0.44492,-0.18651 -0.7196,-0.23641 -0.11651,-0.0212 -0.23368,-0.0394 -0.35142,-0.0521 -0.0446,-0.005 -0.12698,-0.0447 -0.13448,-4.8e-4 -0.22104,1.30385 0.34999,1.27791 -0.11691,1.29019 0.15383,0.006 0.43096,0.0294 0.61927,-0.009 0.0479,-0.0107 0.10415,-0.003 0.14382,-0.0322 0.0302,-0.0221 -0.0745,0.011 -0.1118,0.009 -0.005,-3.1e-4 -0.002,-0.0152 0.003,-0.0153 0.11807,-3.2e-4 0.21857,0.0319 0.31385,0.10272 0.0664,0.0383 0.13204,0.0778 0.19916,0.1148 0.0162,0.009 0.0343,0.0315 0.0505,0.0226 0.0136,-0.007 -0.0202,-0.0551 -0.008,-0.0458 0.12129,0.0915 0.22638,0.37217 0.36693,0.44072 0.10904,0.0886 0.2124,0.1846 0.32711,0.26568 0.21941,0.15509 0.49786,0.22721 0.74796,0.31717 0.35019,0.20138 0.66303,0.4522 0.99466,0.68301 0.31232,0.21736 0.20282,0.11475 0.57164,0.39918 0.0918,0.0708 0.17787,0.14879 0.26681,0.22318 0.98141,0.82094 1.81069,-0.17044 0.82927,-0.99137 z" />
  <path
     id="path7368"
     style="fill:#ff0000;fill-opacity:1;fill-rule:nonzero;stroke:none;stroke-width:3.77953"
     d="M 398.12109 609.07812 C 398.03972 609.08002 397.95801 609.08399 397.87695 609.08984 C 397.54389 609.1123 397.2246 609.23972 396.89258 609.27344 C 396.75171 609.25431 396.61006 609.2379 396.46875 609.22266 C 396.30018 609.20376 395.98928 609.05357 395.96094 609.2207 C 395.96071 609.22202 395.96116 609.2233 395.96094 609.22461 C 395.80408 609.21851 395.6468 609.2148 395.49023 609.21289 C 393.64281 609.30836 394.70683 609.175 395.91406 614.08203 C 395.81118 614.0883 395.68762 614.09324 395.51953 614.09766 C 395.63436 614.10213 395.77882 614.10793 395.92383 614.11523 C 395.95992 614.22132 396.11594 614.1698 396.26562 614.13281 C 396.38296 614.13747 396.50226 614.14045 396.625 614.14258 C 396.7358 614.16984 396.84451 614.20499 396.95508 614.23242 C 397.8921 614.46637 397.37025 614.32473 398.79102 614.88281 C 399.19966 615.05176 399.63571 615.16247 400.01562 615.38867 C 400.7179 615.80673 401.35998 616.31943 402.01758 616.80469 C 404.03978 618.29677 405.94788 619.93949 407.84766 621.58203 C 409.24483 622.84352 410.49002 624.2629 411.82227 625.59375 C 412.45103 626.18649 413.05676 626.80542 413.66602 627.41797 C 413.77071 627.52304 413.84737 627.66326 413.97852 627.73242 C 415.63051 628.6067 415.41859 628.59192 417.05078 628.37891 C 417.08357 628.37441 417.27832 628.3189 417.4707 628.26367 C 417.71695 628.28242 417.98496 628.30238 418.0957 628.30859 C 422.92397 628.57996 423.19403 623.69259 418.36523 623.42969 C 417.96166 623.40701 417.5643 623.41979 417.16016 623.36914 C 417.14604 623.37124 417.14429 623.37106 417.13086 623.37305 C 417.50451 622.39888 417.148 620.99731 415.60547 619.70703 L 415.60352 619.70703 C 415.26752 619.42583 414.94259 619.1311 414.5957 618.86328 C 412.84193 617.50923 413.47214 618.05535 412.00977 617.03711 C 410.67699 616.10912 409.4169 615.15147 408.02539 614.31445 C 407.33339 613.87354 406.35137 613.73851 405.57812 613.35352 C 405.33594 613.17071 405.0913 612.9903 404.8457 612.8125 C 404.80963 612.77096 404.77482 612.72716 404.74219 612.68164 C 403.99985 611.47427 402.81512 610.7661 401.62109 610.07422 C 400.58946 609.45864 399.34176 609.04965 398.12109 609.07812 z M 417.79102 628.17383 C 417.8632 628.15493 417.6476 628.21554 417.57617 628.23633 C 417.57356 628.23622 417.5729 628.23644 417.57031 628.23633 C 417.65264 628.21279 417.75724 628.1825 417.79102 628.17383 z "
     transform="scale(0.26458333)" />
</svg>
